<svg width="131" height="85" viewBox="0 0 131 85" fill="none" xmlns="http://www.w3.org/2000/svg">
<g clip-path="url(#clip0_3472_200)">
<path d="M51.0171 52.1544C49.8264 52.1544 49.1963 51.5069 49.1963 50.2828V34.5254C49.1963 33.2999 49.8264 32.6537 51.0171 32.6537H59.6102C60.7839 32.6537 61.4048 33.3013 61.4048 34.5254V35.8629C61.4048 37.0883 60.7839 37.7345 59.6102 37.7345H54.8644V39.7961H58.2256C59.4164 39.7961 60.0464 40.4436 60.0464 41.6677V43.0052C60.0464 44.2293 59.4164 44.8768 58.2256 44.8768H54.8644V47.0709H59.9181C61.1088 47.0709 61.7389 47.7185 61.7389 48.9426V50.28C61.7389 51.5041 61.1088 52.1517 59.9181 52.1517H51.0171V52.1544Z" fill="#02205F"/>
<path d="M75.8304 52.1544C74.8165 52.1544 74.1367 51.6284 73.8105 50.5915C73.8092 50.5874 73.8079 50.582 73.8066 50.5779L73.4437 48.81H68.4437L68.0809 50.5779C67.8071 51.6257 67.1443 52.1544 66.1094 52.1544H64.0319C63.3926 52.1544 62.9263 51.9522 62.646 51.5519C62.3643 51.1503 62.3329 50.6188 62.5517 49.9713L67.553 34.1634C67.8791 33.1619 68.559 32.6537 69.5729 32.6537H72.3683C73.3822 32.6537 74.0607 33.1606 74.3869 34.162L79.3895 49.9726C79.6083 50.6175 79.5755 51.1503 79.2939 51.5506C79.0136 51.9509 78.5472 52.153 77.908 52.153H75.8304V52.1544ZM72.1574 44.0763L71.6269 41.5625C71.543 41.2469 71.4553 40.8712 71.3701 40.4518C71.285 40.0324 71.1985 39.643 71.1147 39.2933L70.9562 38.5023C70.9562 38.5023 70.799 39.2919 70.7977 39.2933C70.7138 39.643 70.6326 40.031 70.5553 40.4491C70.478 40.8671 70.3955 41.2442 70.3091 41.5693L69.7327 44.0763H72.1574Z" fill="#02205F"/>
<path d="M83.8134 52.1544C82.6384 52.1544 82.0188 51.5069 82.0188 50.2828V37.7359H78.5553C77.3803 37.7359 76.7607 37.0883 76.7607 35.8642V34.5268C76.7607 33.3013 77.3817 32.6551 78.5553 32.6551H91.1503C92.3253 32.6551 92.9449 33.3027 92.9449 34.5268V35.8642C92.9449 37.0897 92.324 37.7359 91.1503 37.7359H87.6869V50.2828C87.6869 51.5069 87.066 52.1544 85.8923 52.1544H83.8134Z" fill="#02205F"/>
<path d="M95.6675 52.1544C94.4768 52.1544 93.8467 51.5069 93.8467 50.2828V34.5254C93.8467 33.2999 94.4768 32.6537 95.6675 32.6537H104.132C105.306 32.6537 105.927 33.3013 105.927 34.5254V35.8629C105.927 37.0883 105.306 37.7345 104.132 37.7345H99.5148V40.4382H102.952C104.143 40.4382 104.773 41.0953 104.773 42.3371V43.6487C104.773 44.8727 104.143 45.5203 102.952 45.5203H99.5148V50.2828C99.5148 51.5069 98.8939 52.1544 97.7202 52.1544H95.6675Z" fill="#02205F"/>
<path d="M109.184 52.1544C107.993 52.1544 107.363 51.5069 107.363 50.2828V34.5254C107.363 33.2999 107.993 32.6537 109.184 32.6537H111.237C112.41 32.6537 113.031 33.3013 113.031 34.5254V50.2828C113.031 51.5069 112.41 52.1544 111.237 52.1544H109.184Z" fill="#02205F"/>
<path d="M121.369 52.1544C120.195 52.1544 119.574 51.5069 119.574 50.2828V37.7359H116.111C114.937 37.7359 114.316 37.0883 114.316 35.8642V34.5268C114.316 33.3013 114.937 32.6551 116.111 32.6551H128.706C129.88 32.6551 130.501 33.3027 130.501 34.5268V35.8642C130.501 37.0897 129.88 37.7359 128.706 37.7359H125.243V50.2828C125.243 51.5069 124.622 52.1544 123.448 52.1544H121.369Z" fill="#02205F"/>
<path d="M40.627 38.3834C40.3859 38.1758 39.8855 37.893 38.1355 37.5555C37.5932 37.4503 37.0836 37.3711 36.7509 37.3219L36.502 36.5446L36.4967 36.5309C36.4745 36.4653 35.9754 35.0267 35.2235 33.4843C35.9204 32.6086 37.5683 30.2274 37.4595 27.409C37.3836 25.428 36.7207 24.0346 35.5444 23.3788C34.7205 22.9198 33.6699 22.8378 32.4202 23.1342C31.1719 23.4307 29.6812 24.1165 27.9887 25.1753C26.9893 24.9499 23.2704 24.178 20.8221 24.5578C18.3739 24.178 14.655 24.9499 13.6555 25.1753C11.9631 24.1165 10.4724 23.4293 9.22399 23.1342C7.97432 22.8378 6.92244 22.9211 6.09981 23.3788C4.92349 24.0346 4.26197 25.428 4.18469 27.409C4.07596 30.2274 5.72517 32.61 6.42074 33.4843C5.66884 35.0281 5.16976 36.4667 5.14749 36.5309L4.89467 37.3219C4.56195 37.3711 4.05239 37.4517 3.51008 37.5555C1.76001 37.893 1.25961 38.1758 1.01858 38.3834C0.570588 38.77 0.426498 39.5897 0.533913 41.1239C0.58107 41.8002 0.667523 42.4341 0.715991 42.7565C1.00287 44.8563 1.58186 47.6624 1.58186 47.6624L2.15691 47.5108C2.15691 47.5108 2.3521 48.213 2.98217 49.7527C4.38642 53.1886 6.15613 54.91 6.15613 54.91L7.35734 54.9086L7.36127 56.4496L11.2256 57.5863L11.8373 57.783L15.3767 58.5849C15.606 59.2243 15.7985 59.7626 15.9204 60.1C16.0238 60.3869 16.2007 60.6383 16.4325 60.8268C16.7181 61.0591 17.1543 61.3514 17.6979 61.5222C18.5769 61.7995 20.3911 61.9321 20.8247 61.9594C21.2583 61.9307 23.0726 61.7995 23.9515 61.5222C24.4939 61.3501 24.9301 61.0577 25.2169 60.8268C25.4488 60.6383 25.6256 60.3869 25.7291 60.1C25.8496 59.7626 26.0435 59.2243 26.2727 58.5849L29.8122 57.783L30.4239 57.5863L34.2882 56.4496L34.2921 54.9086L35.4933 54.91C35.4933 54.91 37.2631 53.1886 38.6673 49.7527C39.2974 48.213 39.4926 47.5108 39.4926 47.5108L40.0676 47.6624C40.0676 47.6624 40.6466 44.8563 40.9335 42.7579C40.9819 42.4355 41.0684 41.8016 41.1156 41.1253C41.219 39.5911 41.075 38.7714 40.627 38.3834ZM24.4362 59.7161C23.9175 60.4416 21.5806 60.5727 20.9335 60.6765C20.8758 60.6861 20.8234 60.6902 20.8234 60.6902C20.8234 60.6902 20.771 60.6861 20.7134 60.6765C20.0663 60.5727 17.7294 60.4416 17.2106 59.7161C17.0299 59.4634 16.223 57.3732 15.5326 55.6354C15.885 55.7419 16.3474 55.843 16.9067 55.8758C18.2481 55.9564 19.4153 55.6326 20.0178 55.287C20.4016 55.0671 20.6754 54.7651 20.8234 54.5752C20.9714 54.7651 21.2439 55.0671 21.629 55.287C22.2316 55.6313 23.3987 55.9564 24.7401 55.8758C25.2995 55.8417 25.7632 55.7406 26.1142 55.6354C25.4239 57.3745 24.617 59.4634 24.4362 59.7161ZM20.3702 25.801C20.4095 25.8051 20.4475 25.8106 20.4855 25.8147C20.5759 25.8297 20.6715 25.8447 20.7383 25.8557C20.7841 25.8639 20.8182 25.8707 20.8182 25.8707C20.8195 25.8707 20.8208 25.8707 20.8221 25.8693C20.8234 25.8693 20.826 25.8693 20.826 25.8707C20.826 25.8707 20.8614 25.8639 20.906 25.8557C20.9741 25.8447 21.0697 25.8297 21.1588 25.8147C21.1968 25.8092 21.2347 25.8051 21.2727 25.801L21.9041 25.7546C24.4624 25.6562 27.9167 26.4827 27.956 26.4923L28.2036 26.5524L28.4197 26.4144C32.2513 23.9717 34.0904 24.0359 34.9589 24.5195C35.9269 25.0592 36.1784 26.4172 36.219 27.4595C36.3317 30.3913 34.0511 32.916 34.0288 32.9406L33.7171 33.2794L33.9293 33.6934C34.7218 35.2426 35.2864 36.8478 35.327 36.9612L35.8195 38.4995L36.2073 38.5501C36.2151 38.5515 37.022 38.6566 37.8958 38.8247C39.2895 39.0925 39.7035 39.296 39.8069 39.3602C39.8462 39.4559 39.9668 39.8725 39.8633 41.1718C39.8384 41.486 39.8056 41.7893 39.7729 42.0447C39.7703 42.0447 39.7676 42.0447 39.765 42.0447C39.7545 42.1527 39.7414 42.2647 39.7283 42.3781C39.6969 42.6076 39.672 42.7511 39.672 42.7552L39.6812 42.7565C39.6288 43.1513 39.5607 43.5817 39.4742 44.0462C39.0996 46.0599 39 46.37 39 46.37L36.7797 46.6515L38.0791 47.8837C38.0791 47.8837 37.229 50.1366 36.4496 51.4672C35.6702 52.7965 34.6733 53.7296 34.6733 53.7296L33.108 53.7214L33.1197 55.4305L29.5384 56.5371L26.7613 57.2051C27.5015 55.1381 28.3333 52.8102 28.4158 52.5506C28.5677 52.0752 28.3857 51.6311 28.3857 51.6311L24.8567 44.7648C24.9261 44.8386 25.0008 44.9069 25.0715 44.9779C24.4257 44.0503 23.1053 41.8972 23.1053 41.8972L23.0202 41.8917C23.0438 41.9477 23.0647 42.0038 23.0896 42.0611C23.0804 42.0885 23.0726 42.1172 23.066 42.1527C22.8839 43.1349 24.038 45.6391 24.038 45.6391C24.038 45.6391 25.4829 48.4329 26.4129 50.2336L22.3443 52.0683L26.8792 51.3265C26.9369 51.321 26.9919 51.3524 27.0194 51.4057L27.1687 51.694C27.2277 51.8087 27.246 51.9782 27.2434 52.1585C27.2434 52.4358 27.2054 52.7118 27.1334 52.9796L27.1307 52.9782L22.8237 52.6735L26.6736 54.0124C26.4653 54.2856 26.1863 54.496 25.8627 54.6094C25.8575 54.6121 25.8509 54.6135 25.8457 54.6149C25.7737 54.634 25.7016 54.6545 25.6256 54.6736C24.6288 54.9345 23.4525 54.8785 22.732 54.5343C22.0128 54.19 21.2924 52.9727 21.2924 52.9727L21.3697 50.627L20.8169 51.7623L20.2641 50.627L20.3414 52.9727C20.3414 52.9727 19.6222 54.19 18.9018 54.5343C18.1826 54.8785 17.005 54.9345 16.0081 54.6736C15.9335 54.6545 15.8601 54.634 15.7881 54.6149C15.7828 54.6135 15.7763 54.6108 15.771 54.6094C15.4475 54.496 15.1685 54.2856 14.9602 54.0124L18.8101 52.6735L14.503 52.9782L14.5004 52.9796C14.4283 52.7132 14.3917 52.4372 14.3904 52.1585C14.3864 51.9768 14.4048 51.8087 14.465 51.694L14.6144 51.4057C14.6419 51.3524 14.6969 51.321 14.7545 51.3265L19.2895 52.0683L15.2209 50.2336C16.1509 48.4343 17.5958 45.6391 17.5958 45.6391C17.5958 45.6391 18.7511 43.1349 18.5677 42.1527C18.5612 42.1172 18.5533 42.0871 18.5441 42.0611C18.569 42.0051 18.5887 41.9491 18.6136 41.8917L18.5284 41.8972C18.5284 41.8972 17.208 44.0503 16.5622 44.9779C16.6343 44.9069 16.7089 44.8386 16.7771 44.7648L13.2481 51.6311C13.2481 51.6311 13.066 52.0752 13.218 52.5506C13.3005 52.8102 14.1323 55.1381 14.8724 57.2051L12.0954 56.5371L8.51401 55.4305L8.5258 53.7214L6.96043 53.7296C6.96043 53.7296 5.96358 52.7965 5.18417 51.4672C4.40476 50.1379 3.55461 47.8837 3.55461 47.8837L4.85406 46.6515L2.63373 46.37C2.63373 46.37 2.53418 46.0599 2.15954 44.0462C2.07308 43.5817 2.00627 43.1527 1.95257 42.7565L1.96174 42.7552C1.96174 42.7524 1.93685 42.6076 1.90541 42.3781C1.89231 42.2647 1.87921 42.1527 1.86873 42.0447C1.86611 42.0447 1.86349 42.0447 1.86087 42.0447C1.82943 41.7893 1.79538 41.486 1.77049 41.1718C1.667 39.8739 1.78752 39.4572 1.82681 39.3602C1.93161 39.296 2.34555 39.0925 3.738 38.8247C4.61042 38.6566 5.41864 38.5515 5.4265 38.5501L5.81424 38.4995L6.30677 36.9599C6.34738 36.8437 6.91196 35.2399 7.70447 33.692L7.91668 33.278L7.60492 32.9392C7.58134 32.9146 5.30075 30.4036 5.41471 27.4582C5.45532 26.4144 5.70683 25.0578 6.67487 24.5182C7.54335 24.0346 9.38249 23.9703 13.214 26.4131L13.4302 26.551L13.6778 26.4909C13.7171 26.4814 17.1713 25.6548 19.7283 25.7532L20.3702 25.801Z" fill="#02205F"/>
<path d="M11.7475 31.2753L9.1748 33.5117L9.33462 33.4324C10.7297 32.7343 12.3186 32.5786 13.8133 32.9939L15.9733 33.5937L19.8717 32.4488L16.3807 32.6934L11.7475 31.2753Z" fill="#02205F"/>
<path d="M19.429 27.2847L20.5267 25.5483L16.9035 26.5032L13.1309 29.1236L15.6485 28.2574C16.872 27.8366 18.1492 27.4582 19.429 27.2847Z" fill="#02205F"/>
<path d="M6.28794 47.0777L10.168 49.7172L13.5266 48.3428C13.4926 48.3428 12.8376 48.4016 12.0844 48.4699C10.616 48.6024 9.15931 48.1037 8.05242 47.0887L6.25781 45.4424L6.28794 47.0777Z" fill="#02205F"/>
<path d="M7.35481 50.7719L7.08496 50.653L7.98358 52.0533L10.0952 52.4823L12.7792 49.9426L10.3729 51.0355C9.91834 51.2418 9.41795 51.3101 8.92672 51.2323L8.88088 51.2254C8.35822 51.1407 7.84472 50.9891 7.35481 50.7719Z" fill="#02205F"/>
<path d="M29.8967 31.2753L32.4655 33.5117L32.3056 33.4324C30.9106 32.7343 29.3216 32.5786 27.827 32.9939L25.6669 33.5937L21.7686 32.4488L25.2634 32.6934L29.8967 31.2753Z" fill="#02205F"/>
<path d="M22.245 27.2847L21.1172 25.5483L24.7405 26.5032L28.5131 29.1236L25.9954 28.2574C24.7706 27.8366 23.5248 27.4582 22.245 27.2847Z" fill="#02205F"/>
<path d="M35.3539 47.0777L31.4739 49.7172L28.1152 48.3428C28.1493 48.3428 28.8043 48.4016 29.5575 48.4699C31.0259 48.6024 32.4825 48.1037 33.5894 47.0887L35.384 45.4424L35.3539 47.0777Z" fill="#02205F"/>
<path d="M34.2867 50.7719L34.5566 50.653L33.658 52.0533L31.5464 52.4823L28.8623 49.9426L31.2686 51.0355C31.7232 51.2418 32.2249 51.3101 32.7148 51.2323L32.7607 51.2254C33.2846 51.1407 33.7981 50.9891 34.2867 50.7719Z" fill="#02205F"/>
<path d="M25.8351 30.1659L20.8233 28.9282V28.9268H20.8207H20.8194V28.9282L15.8076 30.1659L19.5056 30.1523L20.8194 30.2588H20.8207H20.8233L22.1359 30.1523L25.8351 30.1659Z" fill="#02205F"/>
<path d="M24.0761 48.5655C23.7486 47.8401 22.9364 47.5258 22.2461 47.8578L20.7999 48.5532L19.3538 47.8578C18.6647 47.5258 17.8513 47.8401 17.5238 48.5655C17.195 49.2923 17.4779 50.1653 18.1565 50.5246L20.7999 51.9263L23.4434 50.5246C24.1219 50.1653 24.4035 49.2923 24.0761 48.5655Z" fill="#02205F"/>
<path d="M35.3668 40.6854C35.3668 38.6116 34.4053 36.8752 32.891 35.9421C31.8195 35.2822 30.2686 35.1729 29.3084 35.1729C29.3084 35.1729 27.8439 35.1333 26.5261 35.1948V35.188H20.824H15.1218V35.1948C13.804 35.1333 12.3395 35.1729 12.3395 35.1729C11.3794 35.1729 9.8284 35.2822 8.75687 35.9421C7.2426 36.8738 6.28111 38.6116 6.28111 40.6854C6.28111 40.6854 6.1488 42.4382 6.98323 44.1282C8.47524 47.1501 11.6191 47.2417 11.6191 47.2417C15.9156 47.2417 19.3974 43.609 19.3974 39.1294C19.3974 39.0802 19.3948 39.031 19.3935 38.9818H20.824H22.2544C22.2531 39.031 22.2505 39.0802 22.2505 39.1294C22.2505 43.6104 25.7336 47.2417 30.0288 47.2417C30.0288 47.2417 33.1714 47.1501 34.6647 44.1282C35.4978 42.4382 35.3668 40.6854 35.3668 40.6854ZM22.4705 37.6402H20.824H19.1774C19.0464 37.2345 18.8512 36.8588 18.5892 36.5282H20.824H23.0587C22.7967 36.8574 22.6015 37.2345 22.4705 37.6402Z" fill="#EB0C77"/>
</g>
<defs>
<clipPath id="clip0_3472_200">
<rect width="130" height="84.9194" fill="white" transform="translate(0.5)"/>
</clipPath>
</defs>
</svg>
